<svg width="994" height="718" viewBox="0 0 994 718" fill="none" xmlns="http://www.w3.org/2000/svg">
<path d="M395.871 717.997C478.313 717.997 545.146 711.133 545.146 702.665C545.146 694.196 478.313 687.332 395.871 687.332C313.428 687.332 246.595 694.196 246.595 702.665C246.595 711.133 313.428 717.997 395.871 717.997Z" fill="#F5F5F5"/>
<path d="M668.384 710.41C709.606 710.41 743.022 705.244 743.022 698.871C743.022 692.498 709.606 687.332 668.384 687.332C627.163 687.332 593.746 692.498 593.746 698.871C593.746 705.244 627.163 710.41 668.384 710.41Z" fill="#F5F5F5"/>
<path d="M589.278 548.523C589.278 548.284 589.139 548.046 589.059 547.808C587.927 544.789 583.637 543.577 583.637 543.577C582.663 545.116 582.108 546.882 582.028 548.702L581.393 548.92L580.757 549.178C579.505 547.858 577.931 546.886 576.189 546.358C576.189 546.358 573.726 550.072 574.859 553.111L575.156 553.786C574.652 554.517 574.325 555.355 574.201 556.234C574.077 557.113 574.159 558.009 574.441 558.851C575.752 562.406 581.035 563.736 586.199 561.81C591.363 559.883 594.481 555.434 593.151 551.879C592.805 551.061 592.276 550.332 591.605 549.75C590.933 549.168 590.137 548.748 589.278 548.523Z" fill="#577B7C"/>
<path opacity="0.8" d="M589.278 548.523C589.278 548.284 589.139 548.046 589.059 547.808C587.927 544.789 583.637 543.577 583.637 543.577C582.663 545.116 582.108 546.882 582.028 548.702L581.393 548.92L580.757 549.178C579.505 547.858 577.931 546.886 576.189 546.358C576.189 546.358 573.726 550.072 574.859 553.111L575.156 553.786C574.652 554.517 574.325 555.355 574.201 556.234C574.077 557.113 574.159 558.009 574.441 558.851C575.752 562.406 581.035 563.736 586.199 561.81C591.363 559.883 594.481 555.434 593.151 551.879C592.805 551.061 592.276 550.332 591.605 549.75C590.933 549.168 590.137 548.748 589.278 548.523Z" fill="white"/>
<path d="M597.143 456.804C573.568 458.274 545.623 622.942 519.923 612.595C509.039 608.225 499.327 570.509 491.76 528.523L482.922 531.8C488.185 558.334 513.329 672.198 544.749 602.366C580.142 523.677 590.589 402.961 616.507 498.771L619.367 497.4C619.367 497.4 612.019 455.871 597.143 456.804Z" fill="#577B7C"/>
<path opacity="0.3" d="M597.143 456.804C573.568 458.274 545.623 622.942 519.923 612.595C509.039 608.225 499.327 570.509 491.76 528.523L482.922 531.8C488.185 558.334 513.329 672.198 544.749 602.366C580.142 523.677 590.589 402.961 616.507 498.771L619.367 497.4C619.367 497.4 612.019 455.871 597.143 456.804Z" fill="black"/>
<path d="M631.959 481.869C631.959 481.869 635.693 454.362 666.597 429.337C697.501 404.312 718.454 421.273 718.454 421.273L726.696 426.675L727.113 449.793L715.395 470.191L686.239 493.329L656.13 501.829L641.512 495.255L631.959 481.869Z" fill="#577B7C"/>
<path opacity="0.5" d="M631.959 481.869C631.959 481.869 635.693 454.362 666.597 429.337C697.501 404.312 718.454 421.273 718.454 421.273L726.696 426.675L727.113 449.793L715.395 470.191L686.239 493.329L656.13 501.829L641.512 495.255L631.959 481.869Z" fill="white"/>
<path d="M563.637 501.174L610.668 521.035L642.565 499.506L594.898 490.171C589.459 489.108 583.863 489.128 578.431 490.228C572.999 491.329 567.837 493.489 563.24 496.586C562.835 496.838 562.507 497.197 562.294 497.623C562.08 498.05 561.989 498.527 562.03 499.002C562.071 499.477 562.243 499.932 562.527 500.315C562.81 500.698 563.195 500.996 563.637 501.174Z" fill="#263238"/>
<path d="M623.359 589.715L622.505 538.632L654.402 517.122L645.206 564.789C644.148 570.237 642.024 575.422 638.957 580.047C635.89 584.673 631.939 588.646 627.331 591.74C626.952 591.984 626.515 592.124 626.065 592.146C625.614 592.169 625.166 592.072 624.764 591.868C624.362 591.663 624.021 591.356 623.775 590.978C623.528 590.601 623.385 590.165 623.359 589.715Z" fill="#263238"/>
<g opacity="0.5">
<path d="M563.637 501.174L610.668 521.035L642.565 499.506L594.898 490.171C589.459 489.108 583.863 489.128 578.431 490.228C572.999 491.329 567.837 493.489 563.24 496.586C562.835 496.838 562.507 497.197 562.294 497.623C562.08 498.05 561.989 498.527 562.03 499.002C562.071 499.477 562.243 499.932 562.527 500.315C562.81 500.698 563.195 500.996 563.637 501.174Z" fill="white"/>
<path d="M623.359 589.715L622.505 538.632L654.402 517.122L645.206 564.789C644.148 570.237 642.024 575.422 638.957 580.047C635.889 584.673 631.939 588.646 627.331 591.74C626.952 591.984 626.515 592.124 626.065 592.146C625.614 592.169 625.166 592.072 624.764 591.868C624.362 591.663 624.021 591.356 623.775 590.978C623.528 590.601 623.385 590.165 623.359 589.715Z" fill="white"/>
</g>
<path d="M779.269 414.898C761.17 412.655 742.806 414.073 725.266 419.068L728.821 438.016L727.113 449.754L708.742 475.573L689.914 488.284L663.359 498.811L641.512 495.255L626.835 486.596C616.527 496.189 606.299 506.298 597.043 516.169C600.678 522.445 604.63 528.761 608.96 535.037C613.29 541.313 617.56 547.331 622.029 553.051C662.803 537.48 709.795 512.515 728.683 499.764C755.951 481.429 775.652 453.833 784.135 422.087C784.342 421.292 784.377 420.462 784.238 419.653C784.098 418.843 783.788 418.072 783.328 417.392C782.867 416.711 782.267 416.137 781.567 415.707C780.867 415.277 780.084 415.001 779.269 414.898Z" fill="#263238"/>
<path opacity="0.6" d="M779.269 414.898C761.17 412.655 742.806 414.073 725.266 419.068L728.821 438.016L727.113 449.754L708.742 475.573L689.914 488.284L663.359 498.811L641.512 495.255L626.835 486.596C616.527 496.189 606.299 506.298 597.043 516.169C600.678 522.445 604.63 528.761 608.96 535.037C613.29 541.313 617.56 547.331 622.029 553.051C662.803 537.48 709.795 512.515 728.683 499.764C755.951 481.429 775.652 453.833 784.135 422.087C784.342 421.292 784.377 420.462 784.238 419.653C784.098 418.843 783.788 418.072 783.328 417.392C782.867 416.711 782.267 416.137 781.567 415.707C780.867 415.277 780.084 415.001 779.269 414.898Z" fill="white"/>
<path d="M608.94 535.037C604.968 529.238 601.393 523.438 597.977 517.639C594.7 520.936 591.482 524.253 588.424 527.569C591.323 532.548 594.455 537.54 597.818 542.545C601.181 547.55 604.644 552.323 608.205 556.864C612.396 555.256 616.666 553.528 620.956 551.72C616.865 546.378 612.833 540.817 608.94 535.037Z" fill="#263238"/>
<path opacity="0.1" d="M782.287 419.386C765.346 437.082 741.195 457.122 712.774 476.308C694.303 488.761 651.204 516.189 615.157 537.699C614.831 537.895 614.548 538.155 614.326 538.464C614.104 538.773 613.946 539.123 613.862 539.494C613.779 539.865 613.771 540.249 613.84 540.623C613.909 540.997 614.053 541.354 614.263 541.671L617.48 546.418C617.847 546.975 618.4 547.383 619.041 547.569C619.682 547.755 620.368 547.706 620.976 547.43C659.884 529.834 704.77 504.431 723.32 491.819C750.967 473.19 771.265 448.661 782.565 423.06C782.829 422.449 782.934 421.781 782.871 421.118C782.809 420.455 782.581 419.819 782.208 419.267L782.287 419.386Z" fill="black"/>
<g opacity="0.4">
<path d="M633.667 490.568C622.803 499.843 611.82 509.595 601.889 519.089C601.326 519.602 600.989 520.319 600.954 521.08C600.919 521.842 601.187 522.587 601.701 523.15C602.214 523.714 602.931 524.05 603.693 524.086C604.454 524.121 605.199 523.853 605.762 523.339C616.825 513.905 628.901 504.094 640.758 494.759L633.667 490.568Z" fill="white"/>
<path d="M726.696 426.675L728.206 434.719C744.753 426.364 762.359 420.297 780.54 416.685L779.924 415.791C761.676 416.228 743.651 419.913 726.696 426.675Z" fill="white"/>
</g>
<path d="M728.424 418.274C725.074 419.148 721.764 420.147 718.494 421.273C722.923 431.541 724.134 440.558 722.188 448.562C719.407 460.022 709.914 470.687 693.191 481.174C676.468 491.661 662.724 495.553 651.204 493.091C643.859 491.269 637.192 487.374 631.999 481.869C629.457 484.186 626.921 486.536 624.392 488.92C644.531 508.999 668.086 509.118 698.692 489.953C730.887 469.774 740.42 447.212 728.424 418.274Z" fill="#263238"/>
<path opacity="0.5" d="M728.424 418.274C725.074 419.148 721.764 420.147 718.494 421.273C722.923 431.541 724.134 440.558 722.188 448.562C719.407 460.022 709.914 470.687 693.191 481.174C676.468 491.661 662.724 495.553 651.204 493.091C643.859 491.269 637.192 487.374 631.999 481.869C629.457 484.186 626.921 486.536 624.392 488.92C644.531 508.999 668.086 509.118 698.692 489.953C730.887 469.774 740.42 447.212 728.424 418.274Z" fill="white"/>
<g opacity="0.2">
<path d="M648.742 495.514C649.031 495.969 649.177 496.5 649.164 497.039C649.15 497.578 648.977 498.101 648.666 498.541C648.355 498.982 647.92 499.32 647.416 499.512C646.912 499.705 646.363 499.744 645.837 499.623C645.311 499.503 644.833 499.229 644.464 498.837C644.094 498.445 643.849 497.951 643.76 497.419C643.671 496.887 643.742 496.341 643.964 495.85C644.187 495.358 644.55 494.944 645.008 494.66C645.617 494.281 646.351 494.158 647.051 494.318C647.75 494.478 648.358 494.908 648.742 495.514Z" fill="black"/>
<path d="M677.52 494.699C677.807 495.155 677.952 495.685 677.937 496.223C677.922 496.761 677.748 497.282 677.437 497.721C677.126 498.16 676.691 498.497 676.189 498.689C675.686 498.881 675.138 498.92 674.613 498.801C674.089 498.681 673.611 498.409 673.241 498.018C672.871 497.628 672.625 497.136 672.535 496.606C672.444 496.075 672.513 495.53 672.732 495.039C672.951 494.547 673.311 494.132 673.767 493.845C674.069 493.655 674.406 493.526 674.759 493.466C675.111 493.405 675.472 493.415 675.82 493.494C676.169 493.574 676.499 493.721 676.79 493.928C677.082 494.134 677.33 494.397 677.52 494.699Z" fill="black"/>
<path d="M704.67 479.645C704.953 480.097 705.095 480.624 705.079 481.157C705.062 481.69 704.888 482.207 704.579 482.641C704.269 483.076 703.838 483.409 703.339 483.599C702.84 483.789 702.297 483.827 701.777 483.708C701.256 483.589 700.783 483.318 700.416 482.931C700.05 482.543 699.806 482.055 699.716 481.529C699.626 481.003 699.694 480.462 699.912 479.975C700.129 479.488 700.485 479.076 700.937 478.791C701.238 478.601 701.573 478.472 701.924 478.412C702.275 478.352 702.634 478.362 702.981 478.441C703.328 478.521 703.656 478.668 703.946 478.874C704.236 479.081 704.482 479.343 704.67 479.645Z" fill="black"/>
<path d="M724.929 459.505C725.217 459.961 725.364 460.492 725.351 461.031C725.337 461.57 725.164 462.093 724.853 462.533C724.542 462.973 724.107 463.311 723.603 463.504C723.099 463.697 722.55 463.735 722.024 463.615C721.498 463.495 721.02 463.221 720.651 462.829C720.281 462.436 720.036 461.943 719.947 461.411C719.858 460.879 719.929 460.333 720.151 459.842C720.374 459.35 720.737 458.936 721.195 458.651C721.496 458.461 721.831 458.333 722.182 458.273C722.533 458.213 722.892 458.223 723.239 458.302C723.586 458.382 723.914 458.529 724.204 458.735C724.494 458.942 724.74 459.204 724.929 459.505Z" fill="black"/>
<path d="M729.497 430.647C729.783 431.103 729.928 431.633 729.913 432.171C729.898 432.709 729.724 433.23 729.413 433.669C729.102 434.108 728.668 434.445 728.165 434.637C727.663 434.829 727.114 434.868 726.59 434.749C726.065 434.629 725.588 434.357 725.218 433.967C724.848 433.576 724.602 433.084 724.511 432.554C724.421 432.024 724.489 431.478 724.708 430.987C724.928 430.495 725.288 430.08 725.743 429.793C726.045 429.6 726.382 429.469 726.735 429.407C727.088 429.346 727.449 429.355 727.799 429.434C728.148 429.514 728.478 429.662 728.77 429.87C729.061 430.079 729.308 430.343 729.497 430.647Z" fill="black"/>
</g>
<path d="M734.124 416.923C741.925 433.945 752.465 449.571 765.326 463.18C773.833 450.624 780.183 436.735 784.115 422.087C784.322 421.294 784.357 420.465 784.219 419.657C784.082 418.848 783.773 418.078 783.315 417.398C782.856 416.718 782.258 416.144 781.561 415.712C780.863 415.281 780.082 415.003 779.269 414.898C764.212 413.061 748.956 413.746 734.124 416.923Z" fill="#577B7C"/>
<path d="M638.732 514.938C640.897 518.175 630.787 528.84 627.55 530.985C624.313 533.13 586.934 554.58 584.749 551.343C582.565 548.106 616.408 521.551 619.645 519.287C622.883 517.023 636.547 511.7 638.732 514.938Z" fill="#263238"/>
<path opacity="0.5" d="M638.732 514.938C640.897 518.175 630.787 528.84 627.55 530.985C624.313 533.13 586.934 554.58 584.749 551.343C582.565 548.106 616.408 521.551 619.645 519.287C622.883 517.023 636.547 511.7 638.732 514.938Z" fill="white"/>
<path opacity="0.5" d="M686.299 424.649C679.992 426.753 674.142 430.035 669.06 434.322C643.578 454.977 640.499 477.678 640.499 477.678L642.764 480.836C645.187 472.614 652.337 455.235 672.376 439.009C677.193 434.984 682.625 431.759 688.464 429.456L686.299 424.649Z" fill="white"/>
<path opacity="0.5" d="M696.786 423.041L697.858 427.013C702.431 426.436 707.076 426.87 711.463 428.284L711.185 427.112C706.867 424.421 701.874 423.009 696.786 423.041Z" fill="white"/>
<path d="M272.573 348.82H271.838C268.666 348.815 265.564 349.748 262.921 351.501H262.802C236.22 368.783 216.661 394.966 207.63 425.359C198.599 455.751 200.686 488.366 213.517 517.359C226.348 546.353 249.084 569.83 277.651 583.583C306.218 597.337 338.75 600.468 369.416 592.416C370.641 592.106 371.756 591.459 372.633 590.549L372.752 590.43C373.646 589.511 374.262 588.359 374.528 587.106C374.795 585.853 374.701 584.55 374.259 583.347C373.817 582.145 373.043 581.092 372.028 580.311C371.013 579.529 369.798 579.05 368.522 578.93C346.121 576.946 324.693 568.852 306.575 555.53C288.457 542.207 274.344 524.167 265.772 503.375C257.201 482.584 254.501 459.839 257.966 437.618C261.431 415.398 270.928 394.555 285.423 377.36C287.516 374.854 288.86 371.809 289.304 368.574C289.748 365.339 289.272 362.045 287.931 359.068C286.591 356.091 284.44 353.551 281.724 351.739C279.008 349.926 275.837 348.915 272.573 348.82Z" fill="#577B7C"/>
<path opacity="0.5" d="M372.752 590.43L372.633 590.549C371.755 591.448 370.65 592.093 369.436 592.416C344.01 599.057 317.19 598.048 292.335 589.516C287.373 587.825 282.518 585.835 277.797 583.558C255.874 573.002 237.255 556.653 223.952 536.279C210.65 515.906 203.171 492.283 202.325 467.966L202.503 455.315C203.76 434.512 209.867 414.292 220.338 396.272C230.808 378.253 245.351 362.934 262.802 351.541H262.921C265.57 349.785 268.68 348.852 271.858 348.859H272.593C275.851 348.956 279.016 349.968 281.727 351.778C284.438 353.588 286.585 356.124 287.923 359.096C289.261 362.069 289.736 365.358 289.294 368.587C288.852 371.817 287.511 374.857 285.423 377.36C270.625 394.964 261.058 416.363 257.807 439.129C254.556 461.896 257.752 485.117 267.032 506.159C268.144 508.701 269.376 511.224 270.686 513.726C272.461 517.063 274.4 520.373 276.506 523.657C288.924 542.788 306.456 558.056 327.112 567.728C329.654 568.94 332.216 570.032 334.818 571.045C345.641 575.273 357.008 577.948 368.582 578.99C369.84 579.128 371.035 579.616 372.031 580.398C373.027 581.18 373.785 582.225 374.219 583.415C374.653 584.604 374.745 585.892 374.486 587.131C374.227 588.371 373.626 589.513 372.752 590.43Z" fill="white"/>
<path opacity="0.1" d="M374.202 583.24C373.766 582.054 372.999 581.018 371.993 580.254C370.986 579.49 369.782 579.031 368.522 578.93C346.121 576.946 324.693 568.852 306.575 555.53C288.457 542.207 274.344 524.167 265.772 503.375C257.201 482.584 254.501 459.839 257.966 437.618C261.431 415.398 270.928 394.555 285.423 377.36C287.436 374.99 288.768 372.118 289.275 369.05C289.782 365.982 289.446 362.834 288.303 359.942C286.13 360.049 284.025 360.735 282.206 361.928H282.106C231.759 394.739 221.034 467.49 258.134 524.411C285.642 566.656 331.68 588.245 374.202 583.24Z" fill="black"/>
<path d="M375.156 577.957C371.581 574.66 368.661 576.686 366.933 578.771L368.522 578.97C369.798 579.09 371.013 579.569 372.028 580.35C373.043 581.132 373.817 582.185 374.259 583.387C374.701 584.59 374.795 585.893 374.528 587.146C374.262 588.399 373.646 589.551 372.752 590.469L372.633 590.588C372.163 591.064 371.628 591.472 371.044 591.8C377.539 597.917 381.213 583.478 375.156 577.957Z" fill="#577B7C"/>
<g opacity="0.2">
<path d="M375.156 577.957C371.581 574.66 368.661 576.686 366.933 578.771L368.522 578.97C369.798 579.09 371.013 579.569 372.028 580.35C373.043 581.132 373.817 582.185 374.259 583.387C374.701 584.59 374.795 585.893 374.528 587.146C374.262 588.399 373.646 589.551 372.752 590.469L372.633 590.588C372.163 591.064 371.628 591.472 371.044 591.8C377.539 597.917 381.213 583.478 375.156 577.957Z" fill="white"/>
</g>
<path d="M418.492 393.706C410.965 382.385 402.921 378.274 406.437 339.227C409.952 300.18 368.284 291.779 354.579 304.927C340.875 318.075 352.156 342.067 379.187 345.384C379.187 345.384 355.533 459.724 411.958 434.759C420.657 430.985 430.091 411.124 418.492 393.706Z" fill="#577B7C"/>
<path opacity="0.5" d="M418.492 393.706C410.965 382.385 402.921 378.274 406.437 339.227C409.952 300.18 368.284 291.779 354.579 304.927C340.875 318.075 352.156 342.067 379.187 345.384C379.187 345.384 355.533 459.724 411.958 434.759C420.657 430.985 430.091 411.124 418.492 393.706Z" fill="white"/>
<path d="M378.75 340.617C372.117 339.862 349.138 328.84 366.258 317.042C383.378 305.245 405.841 343.596 378.75 340.617Z" fill="#577B7C"/>
<path d="M378.592 349.773C390.806 350.528 402.028 342.742 408.383 332.971C409.972 330.567 406.099 328.323 404.53 330.707C398.909 339.227 389.118 345.96 378.492 345.304C375.612 345.126 375.632 349.594 378.492 349.773H378.592Z" fill="#577B7C"/>
<g opacity="0.2">
<path d="M378.75 340.617C372.117 339.862 349.138 328.84 366.258 317.042C383.378 305.245 405.841 343.596 378.75 340.617Z" fill="white"/>
<path d="M378.592 349.773C390.806 350.528 402.028 342.742 408.383 332.971C409.972 330.567 406.099 328.323 404.53 330.707C398.909 339.227 389.118 345.96 378.492 345.304C375.612 345.126 375.632 349.594 378.492 349.773H378.592Z" fill="white"/>
</g>
<path opacity="0.1" d="M411.958 434.778C420.657 430.945 430.091 411.164 418.492 393.706C416.685 390.985 414.858 388.701 413.15 386.238C404.932 402.347 394.752 417.377 382.842 430.985C388.542 438.473 397.678 441.094 411.958 434.778Z" fill="black"/>
<path d="M380.836 531.621C385.702 517.381 387.549 432.554 336.228 491.263C336.228 491.263 340.816 416.546 307.35 436.05C270.428 457.579 306.019 473.567 299.624 516.03C293.229 558.493 332.335 528.304 332.335 528.304C332.335 528.304 356.288 603.518 380.836 531.621Z" fill="#577B7C"/>
<path opacity="0.5" d="M380.836 531.621C385.702 517.381 387.549 432.554 336.228 491.263C336.228 491.263 340.816 416.546 307.35 436.05C270.428 457.579 306.019 473.567 299.624 516.03C293.229 558.493 332.335 528.304 332.335 528.304C332.335 528.304 356.288 603.518 380.836 531.621Z" fill="white"/>
<path d="M299.902 441.134C275.95 460.3 305.543 476.884 299.664 516.03C298.622 521.055 298.622 526.239 299.664 531.264C300.279 532.157 319.008 558.87 325.92 490.568C332.772 423.577 302.067 439.883 299.902 441.134Z" fill="#577B7C"/>
<path opacity="0.2" d="M299.902 441.134C275.95 460.3 305.543 476.884 299.664 516.03C298.622 521.055 298.622 526.239 299.664 531.264C300.279 532.157 319.008 558.87 325.92 490.568C332.772 423.577 302.067 439.883 299.902 441.134Z" fill="white"/>
<g opacity="0.5">
<path d="M297.678 458.354L313.566 446.437C315.096 445.285 313.566 442.703 312.077 443.855L296.188 455.772C294.659 456.904 296.188 459.506 297.678 458.354Z" fill="white"/>
<path d="M299.902 471.104L319.386 458.453C320.975 457.42 319.386 454.838 317.876 455.891L298.393 468.542C296.784 469.575 298.273 472.157 299.902 471.104Z" fill="white"/>
<path d="M302.802 484.252L322.285 471.601C323.894 470.548 322.405 467.966 320.776 469.019L301.292 481.67C299.703 482.723 301.292 485.305 302.802 484.252Z" fill="white"/>
<path d="M304.887 498.513L321.054 488.026C322.663 486.973 321.173 484.391 319.564 485.444L303.397 495.951C301.789 496.983 303.278 499.565 304.887 498.513Z" fill="white"/>
<path d="M304.967 511.998L319.088 502.823C320.677 501.79 319.187 499.208 317.578 500.26L303.457 509.416C301.868 510.469 303.457 513.051 304.967 511.998Z" fill="white"/>
<path d="M304.013 526L318.134 516.844C319.743 515.792 318.134 513.21 316.625 514.262L302.524 523.438C300.915 524.471 302.404 527.053 304.013 526Z" fill="white"/>
</g>
<path d="M336.148 488.006C336.645 502.326 332.732 517.023 328.204 530.429C327.271 533.15 331.58 534.402 332.514 531.621C337.201 517.877 341.173 502.684 340.657 487.927C340.558 485.047 336.089 485.027 336.188 487.927L336.148 488.006Z" fill="#577B7C"/>
<g opacity="0.2">
<path d="M336.148 488.006C336.645 502.326 332.732 517.023 328.204 530.429C327.271 533.15 331.58 534.402 332.514 531.621C337.201 517.877 341.173 502.684 340.657 487.927C340.558 485.047 336.089 485.027 336.188 487.927L336.148 488.006Z" fill="white"/>
</g>
<path opacity="0.1" d="M339.227 544.729C348.105 561.81 364.331 579.943 380.836 531.621C384.669 520.4 386.615 465.345 362.147 471.243C359.416 474.926 356.884 478.751 354.56 482.703C347.906 494.243 338.691 520.558 339.227 544.729Z" fill="black"/>
<path d="M518.016 419.188C518.016 419.188 565.683 536.249 444.53 586.696C339.267 630.549 343.537 518.294 357.142 489.377C373.309 454.997 423.339 407.946 424.014 362.921L518.016 419.188Z" fill="#577B7C"/>
<path opacity="0.7" d="M518.016 419.188C518.016 419.188 565.683 536.249 444.53 586.696C339.267 630.549 343.537 518.294 357.142 489.377C373.309 454.997 423.339 407.946 424.014 362.921L518.016 419.188Z" fill="white"/>
<path d="M616.646 323.854C616.647 349.055 607.434 373.386 590.742 392.266C574.05 411.145 551.031 423.27 526.02 426.357C521.83 426.877 517.611 427.136 513.389 427.132C492.962 427.132 472.995 421.075 456.011 409.727C439.027 398.378 425.789 382.249 417.973 363.377C410.156 344.506 408.11 323.74 412.095 303.706C416.08 283.672 425.917 265.27 440.36 250.826C454.804 236.383 473.206 226.546 493.24 222.561C513.274 218.576 534.04 220.622 552.911 228.438C571.783 236.255 587.912 249.493 599.261 266.477C610.609 283.46 616.666 303.428 616.666 323.854H616.646Z" fill="#577B7C"/>
<path opacity="0.3" d="M616.646 323.854C616.647 349.055 607.434 373.386 590.742 392.266C574.05 411.145 551.031 423.27 526.02 426.357C521.83 426.877 517.611 427.136 513.389 427.132C492.962 427.132 472.995 421.075 456.011 409.727C439.027 398.378 425.789 382.249 417.973 363.377C410.156 344.506 408.11 323.74 412.095 303.706C416.08 283.672 425.917 265.27 440.36 250.826C454.804 236.383 473.206 226.546 493.24 222.561C513.274 218.576 534.04 220.622 552.911 228.438C571.783 236.255 587.912 249.493 599.261 266.477C610.609 283.46 616.666 303.428 616.666 323.854H616.646Z" fill="white"/>
<path d="M524.829 416.665C547.473 413.869 568.313 402.89 583.425 385.795C598.537 368.701 606.877 346.671 606.875 323.854C606.875 323.179 606.875 322.484 606.875 321.868C606.737 314.913 603.912 308.281 598.99 303.363C594.069 298.446 587.435 295.625 580.479 295.493H578.91C553.995 295.493 530.1 305.39 512.483 323.008C494.865 340.626 484.967 364.521 484.967 389.436V391.025C485.109 397.977 487.933 404.606 492.848 409.525C497.764 414.444 504.39 417.273 511.343 417.42H513.329C517.174 417.402 521.014 417.15 524.829 416.665Z" fill="#577B7C"/>
<path opacity="0.3" d="M524.829 416.665C547.473 413.869 568.313 402.89 583.425 385.795C598.537 368.701 606.877 346.671 606.875 323.854C606.875 323.179 606.875 322.484 606.875 321.868C606.737 314.913 603.912 308.281 598.99 303.363C594.069 298.446 587.435 295.625 580.479 295.493H578.91C553.995 295.493 530.1 305.39 512.483 323.008C494.865 340.626 484.967 364.521 484.967 389.436V391.025C485.109 397.977 487.933 404.606 492.848 409.525C497.764 414.444 504.39 417.273 511.343 417.42H513.329C517.174 417.402 521.014 417.15 524.829 416.665Z" fill="white"/>
<path d="M521.909 431.303C520.805 427.196 519.479 423.151 517.937 419.188L423.934 362.921C423.828 368.05 423.162 373.151 421.948 378.135L437.023 399.763L457.519 417.281L485.186 427.211L513.329 432.872L521.909 431.303Z" fill="#263238"/>
<path opacity="0.5" d="M521.909 431.303C520.805 427.196 519.479 423.151 517.937 419.188L423.934 362.921C423.828 368.05 423.162 373.151 421.948 378.135L437.023 399.763L457.519 417.281L485.186 427.211L513.329 432.872L521.909 431.303Z" fill="white"/>
<path d="M500.936 280.677C500.082 302.881 489.376 321.67 477.102 322.663C464.828 323.656 455.454 306.456 456.308 284.251C457.162 262.047 480.141 242.265 480.141 242.265C480.141 242.265 501.79 258.492 500.936 280.677Z" fill="#263238"/>
<path opacity="0.6" d="M500.936 280.677C500.082 302.881 489.376 321.67 477.102 322.663C464.828 323.656 455.454 306.456 456.308 284.251C457.162 262.047 480.141 242.265 480.141 242.265C480.141 242.265 501.79 258.492 500.936 280.677Z" fill="white"/>
<path opacity="0.2" d="M488.006 277.856C487.51 290.806 481.273 301.69 474.103 302.365C466.934 303.04 461.452 292.911 461.948 279.942C462.445 266.972 475.851 255.433 475.851 255.433C475.851 255.433 488.582 264.887 488.006 277.856Z" fill="black"/>
<path d="M551.641 305.225C535.474 320.16 528.185 340.577 535.375 350.905C542.564 361.233 561.472 357.36 577.639 342.444C593.806 327.529 593.925 296.764 593.925 296.764C593.925 296.764 567.808 290.309 551.641 305.225Z" fill="#577B7C"/>
<path opacity="0.2" d="M551.641 305.225C535.474 320.16 528.185 340.577 535.375 350.905C542.564 361.233 561.472 357.36 577.639 342.444C593.806 327.529 593.925 296.764 593.925 296.764C593.925 296.764 567.808 290.309 551.641 305.225Z" fill="black"/>
<path opacity="0.2" d="M556.467 309.316C547.033 318.035 542.783 329.952 546.974 335.93C551.164 341.908 562.227 339.723 571.661 331.004C581.095 322.285 581.154 304.371 581.154 304.371C581.154 304.371 565.921 300.597 556.467 309.316Z" fill="black"/>
<path d="M563.22 399.009L564.948 400.339C566.199 401.293 568.046 400.022 568.026 398.353C567.591 393.109 567.485 387.842 567.709 382.584C572.733 346.536 565.524 298.869 530.707 282.325C495.891 265.781 455.355 290.786 431.402 317.876C427.591 321.439 423.558 324.755 419.327 327.807C417.976 328.919 418.214 331.183 419.744 331.541L421.849 332.057L413.567 338.015C413.124 338.35 412.807 338.825 412.67 339.363C412.533 339.9 412.583 340.469 412.812 340.975L419.148 353.269L418.612 353.15C418.187 353.13 417.766 353.23 417.395 353.437C417.024 353.644 416.718 353.951 416.511 354.322C416.305 354.693 416.206 355.115 416.227 355.539C416.247 355.964 416.385 356.374 416.625 356.725C419.726 360.215 422.631 363.875 425.325 367.688C436.234 386.294 452.49 401.186 471.978 410.429C491.296 419.679 512.982 422.797 534.123 419.366C538.749 419.013 543.391 418.927 548.026 419.108C548.472 419.075 548.898 418.913 549.253 418.642C549.608 418.371 549.876 418.002 550.025 417.581C550.175 417.161 550.199 416.705 550.094 416.271C549.99 415.837 549.761 415.443 549.436 415.136L548.98 414.778L562.326 411.839C562.855 411.686 563.315 411.355 563.63 410.904C563.944 410.452 564.094 409.905 564.054 409.356L563.22 399.009Z" fill="#263238"/>
<path opacity="0.8" d="M563.22 399.009L564.948 400.339C566.199 401.293 568.046 400.022 568.026 398.353C567.591 393.109 567.485 387.842 567.709 382.584C572.733 346.536 565.524 298.869 530.707 282.325C495.891 265.781 455.355 290.786 431.402 317.876C427.591 321.439 423.558 324.755 419.327 327.807C417.976 328.919 418.214 331.183 419.744 331.541L421.849 332.057L413.567 338.015C413.124 338.35 412.807 338.825 412.67 339.363C412.533 339.9 412.583 340.469 412.812 340.975L419.148 353.269L418.612 353.15C418.187 353.13 417.766 353.23 417.395 353.437C417.024 353.644 416.718 353.951 416.511 354.322C416.305 354.693 416.206 355.115 416.227 355.539C416.247 355.964 416.385 356.374 416.625 356.725C419.726 360.215 422.631 363.875 425.325 367.688C436.234 386.294 452.49 401.186 471.978 410.429C491.296 419.679 512.982 422.797 534.123 419.366C538.749 419.013 543.391 418.927 548.026 419.108C548.472 419.075 548.898 418.913 549.253 418.642C549.608 418.371 549.876 418.002 550.025 417.581C550.175 417.161 550.199 416.705 550.094 416.271C549.99 415.837 549.761 415.443 549.436 415.136L548.98 414.778L562.326 411.839C562.855 411.686 563.315 411.355 563.63 410.904C563.944 410.452 564.094 409.905 564.054 409.356L563.22 399.009Z" fill="white"/>
<path d="M530.707 368.74C569.019 367.986 568.046 400.022 568.026 398.254C567.591 393.009 567.485 387.742 567.709 382.484C571.264 356.983 568.682 325.702 554.561 303.715C536.507 299.147 511.72 303.556 499.665 348.105C495.891 361.988 514.203 369.078 530.707 368.74Z" fill="#577B7C"/>
<path d="M478.652 357.499C478.652 357.499 474.103 349.555 475.831 347.31C477.082 345.702 481.233 347.688 482.822 348.442C484.411 349.197 488.562 351.144 488.145 353.15C487.589 355.97 478.652 357.499 478.652 357.499Z" fill="#577B7C"/>
<path opacity="0.3" d="M478.652 357.499C478.652 357.499 474.103 349.555 475.831 347.31C477.082 345.702 481.233 347.688 482.822 348.442C484.411 349.197 488.562 351.144 488.145 353.15C487.589 355.97 478.652 357.499 478.652 357.499Z" fill="black"/>
<path d="M486.06 365.761C485.459 366.072 484.797 366.244 484.121 366.263C483.445 366.282 482.773 366.148 482.157 365.871C481.54 365.594 480.993 365.181 480.559 364.664C480.124 364.146 479.811 363.537 479.645 362.881C479.533 362.506 479.281 362.188 478.94 361.996C478.599 361.803 478.196 361.75 477.817 361.849C477.217 362.16 476.554 362.331 475.878 362.35C475.202 362.369 474.531 362.235 473.914 361.958C473.297 361.681 472.751 361.269 472.316 360.751C471.881 360.233 471.569 359.624 471.402 358.969C470.787 357.161 467.907 357.936 468.542 359.763C469.039 361.622 470.239 363.214 471.888 364.204C473.537 365.193 475.507 365.503 477.38 365.066C478.192 366.77 479.632 368.094 481.398 368.76C483.164 369.426 485.119 369.384 486.854 368.641C488.582 367.946 487.847 365.066 486.06 365.761Z" fill="#263238"/>
<path d="M471.065 328.998C468.026 335.612 463.12 339.803 460.141 338.393C457.162 336.983 457.182 330.448 460.141 323.835C463.1 317.221 468.085 313.03 471.045 314.44C474.004 315.85 474.084 322.385 471.065 328.998Z" fill="#263238"/>
<path d="M468.92 322.524C467.728 325.106 465.801 326.774 464.63 326.198C463.458 325.622 463.458 323.1 464.63 320.498C465.801 317.896 467.748 316.248 468.92 316.804C470.091 317.36 470.111 319.922 468.92 322.524Z" fill="white"/>
<path d="M524.848 355.513C521.83 362.127 516.904 366.337 513.945 364.907C510.985 363.477 510.985 356.963 513.945 350.349C516.904 343.735 521.889 339.545 524.868 340.955C527.847 342.365 527.887 348.979 524.848 355.513Z" fill="#263238"/>
<path d="M522.703 349.118C521.512 351.7 519.605 353.368 518.433 352.792C517.261 352.216 517.261 349.694 518.433 347.092C519.605 344.49 521.551 342.842 522.723 343.398C523.895 343.954 523.895 346.516 522.703 349.118Z" fill="white"/>
<path d="M452.832 345.384C446.185 335.23 436.978 327.009 426.139 321.551C425.285 321.133 424.53 322.424 425.384 322.842C436.013 328.179 445.043 336.23 451.561 346.178C452.077 346.973 453.368 346.178 452.832 345.424V345.384Z" fill="#263238"/>
<path d="M450.945 350.23C441.518 341.257 430.227 334.475 417.877 330.369C416.963 330.091 416.566 331.521 417.479 331.819C429.578 335.807 440.647 342.42 449.893 351.183C450.608 351.839 451.66 350.786 450.945 350.131V350.23Z" fill="#263238"/>
<path d="M518.155 377.797C529.879 376.526 541.731 378.368 552.515 383.14C553.389 383.537 554.143 382.246 553.27 381.869C542.258 376.958 530.145 375.04 518.155 376.308C517.202 376.407 517.202 377.896 518.155 377.797Z" fill="#263238"/>
<path d="M515.355 382.405C528.016 384.018 540.168 388.398 550.946 395.235C551.76 395.751 552.495 394.461 551.701 393.944C540.826 386.999 528.55 382.543 515.752 380.895C514.819 380.776 514.421 382.206 515.355 382.325V382.405Z" fill="#263238"/>
<g opacity="0.5">
<path d="M465.881 307.588C469.518 304.846 474.064 303.596 478.592 304.093C480.459 304.371 481.273 301.511 479.386 301.213C474.08 300.499 468.702 301.858 464.371 305.006C462.842 306.119 464.371 308.7 465.881 307.588Z" fill="black"/>
</g>
<g opacity="0.5">
<path d="M531.125 330.21C534.248 333.53 535.969 337.926 535.931 342.484C535.931 344.47 538.85 344.47 538.91 342.484C538.937 337.139 536.903 331.989 533.23 328.105C531.919 326.695 529.814 328.8 531.125 330.21Z" fill="black"/>
</g>
<path opacity="0.3" d="M616.646 323.854C616.647 349.055 607.434 373.386 590.742 392.266C574.05 411.145 551.031 423.27 526.02 426.357C521.83 426.877 517.611 427.136 513.389 427.132C492.962 427.132 472.995 421.075 456.011 409.727C439.027 398.378 425.789 382.249 417.973 363.377C410.156 344.506 408.11 323.74 412.095 303.706C416.08 283.672 425.917 265.27 440.36 250.826C454.804 236.383 473.206 226.546 493.24 222.561C513.274 218.576 534.04 220.622 552.911 228.438C571.783 236.255 587.912 249.493 599.261 266.477C610.609 283.46 616.666 303.428 616.666 323.854H616.646Z" fill="#577B7C"/>
<path d="M355.513 319.962C353.767 319.808 352.146 318.99 350.985 317.678C350.712 317.348 350.479 316.988 350.289 316.605C350.111 316.248 350.289 316.605 350.17 316.268C350.103 315.986 349.947 315.734 349.725 315.548C349.503 315.362 349.228 315.252 348.939 315.235C348.674 316.675 348.587 318.143 348.681 319.604C350.483 321.502 352.908 322.686 355.513 322.941C357.499 323.199 357.499 320.22 355.513 319.962Z" fill="#577B7C"/>
<path d="M362.127 310.309C361.32 309.073 360.837 307.654 360.722 306.182C360.608 304.711 360.865 303.234 361.471 301.888C361.535 301.734 361.568 301.569 361.568 301.402C361.568 301.235 361.535 301.069 361.471 300.915C360.312 301.332 359.19 301.843 358.115 302.444C357.58 304.155 357.481 305.973 357.828 307.731C358.175 309.49 358.956 311.134 360.101 312.514C361.273 313.805 363.457 311.819 362.127 310.309Z" fill="#577B7C"/>
<g opacity="0.2">
<path d="M355.513 319.962C353.767 319.808 352.146 318.99 350.985 317.678C350.712 317.348 350.479 316.988 350.289 316.605C350.111 316.248 350.289 316.605 350.17 316.268C350.103 315.986 349.947 315.734 349.725 315.548C349.503 315.362 349.228 315.252 348.939 315.235C348.674 316.675 348.587 318.143 348.681 319.604C350.483 321.502 352.908 322.686 355.513 322.941C357.499 323.199 357.499 320.22 355.513 319.962Z" fill="black"/>
<path d="M362.127 310.309C361.32 309.073 360.837 307.654 360.722 306.182C360.608 304.711 360.865 303.234 361.471 301.888C361.535 301.734 361.568 301.569 361.568 301.402C361.568 301.235 361.535 301.069 361.471 300.915C360.312 301.332 359.19 301.843 358.115 302.444C357.58 304.155 357.481 305.973 357.828 307.731C358.175 309.49 358.956 311.134 360.101 312.514C361.273 313.805 363.457 311.819 362.127 310.309Z" fill="black"/>
</g>
<path d="M374.381 466.06C387.926 464.391 402.743 468.046 415.116 473.249C451.402 488.483 474.163 523.101 487.748 558.652C490.469 565.742 501.988 562.624 499.228 555.494C484.709 517.5 460.916 480.896 422.643 463.656C408.165 457.122 390.468 452.197 374.381 454.183C366.874 455.096 366.774 467.033 374.381 466.099V466.06Z" fill="#577B7C"/>
<path d="M526.02 426.357C521.83 426.877 517.611 427.136 513.389 427.132C494.108 427.137 475.211 421.745 458.837 411.565C442.463 401.386 429.265 386.827 420.737 369.535C420.081 368.204 419.466 366.834 418.87 365.463C418.658 364.968 418.321 364.536 417.89 364.212C417.46 363.887 416.952 363.682 416.417 363.615C415.882 363.549 415.339 363.624 414.842 363.834C414.346 364.043 413.913 364.379 413.587 364.808C412.629 366.136 412.067 367.708 411.965 369.343C411.863 370.977 412.226 372.606 413.011 374.043C423.45 394.478 439.837 411.27 460.011 422.204C480.186 433.139 503.2 437.703 526.02 435.295C527.595 435.163 529.108 434.621 530.408 433.722C531.708 432.822 532.749 431.598 533.428 430.171C533.677 429.659 533.779 429.09 533.725 428.524C533.671 427.958 533.463 427.418 533.122 426.962C532.782 426.507 532.323 426.154 531.795 425.942C531.268 425.731 530.692 425.668 530.131 425.762C528.761 426 527.41 426.199 526.02 426.357Z" fill="#577B7C"/>
<path opacity="0.5" d="M548.821 240.18C543.505 237.559 537.935 235.489 532.197 234.003C531.747 233.883 531.274 233.873 530.819 233.975C530.364 234.077 529.94 234.286 529.584 234.586C529.227 234.887 528.948 235.268 528.77 235.699C528.592 236.13 528.521 236.597 528.562 237.062L528.999 241.908C529.055 242.548 529.324 243.15 529.763 243.619C530.203 244.087 530.787 244.394 531.422 244.49C536.389 245.294 541.279 246.517 546.04 248.144C546.434 248.29 546.856 248.348 547.275 248.314C547.694 248.279 548.101 248.154 548.466 247.945C548.831 247.737 549.147 247.451 549.39 247.108C549.633 246.765 549.798 246.373 549.873 245.959L550.37 243.298C550.491 242.68 550.405 242.04 550.124 241.476C549.844 240.912 549.386 240.457 548.821 240.18Z" fill="white"/>
<path opacity="0.5" d="M512.515 238.333L511.482 235.572C511.092 234.575 510.395 233.727 509.492 233.153C508.588 232.578 507.526 232.305 506.457 232.374C490.608 233.417 475.327 238.682 462.201 247.625C449.074 256.567 438.58 268.86 431.809 283.227C425.038 297.595 422.236 313.513 423.694 329.329C425.152 345.145 430.817 360.282 440.101 373.169L439.922 372.832C433.658 360.111 430.518 346.08 430.763 331.903C431.007 317.726 434.63 303.812 441.33 291.315C448.03 278.819 457.613 268.1 469.285 260.05C480.958 251.999 494.382 246.849 508.443 245.026C509.19 244.932 509.906 244.67 510.538 244.261C511.17 243.851 511.702 243.305 512.093 242.661C512.485 242.018 512.726 241.295 512.799 240.545C512.872 239.796 512.775 239.039 512.515 238.333Z" fill="white"/>
<path d="M410.925 497.798C410.925 497.798 433.15 419.585 393.05 432.514C348.86 446.775 382.901 472.018 366.258 515.593C354.838 545.385 374.043 544.074 387.251 540.261C387.251 540.261 350.786 607.788 409.098 589.317C467.41 570.847 471.998 528.205 458.095 505.146C444.193 482.088 410.925 497.798 410.925 497.798Z" fill="#577B7C"/>
<path opacity="0.5" d="M410.925 497.798C410.925 497.798 433.15 419.585 393.05 432.514C348.86 446.775 382.901 472.018 366.258 515.593C354.838 545.385 374.043 544.074 387.251 540.261C387.251 540.261 350.786 607.788 409.098 589.317C467.41 570.847 471.998 528.205 458.095 505.146C444.193 482.088 410.925 497.798 410.925 497.798Z" fill="white"/>
<path d="M383.994 436.169C354.202 450.945 381.65 475.513 366.337 515.613C364.098 520.717 362.929 526.226 362.901 531.8C363.338 532.892 377.023 565.564 400.22 494.699C423.041 425.186 386.615 435.354 383.994 436.169Z" fill="#577B7C"/>
<path opacity="0.2" d="M383.994 436.169C354.202 450.945 381.65 475.513 366.337 515.613C364.098 520.717 362.929 526.226 362.901 531.8C363.338 532.892 377.023 565.564 400.22 494.699C423.041 425.186 386.615 435.354 383.994 436.169Z" fill="white"/>
<g opacity="0.5">
<path d="M375.374 454.818L398.79 446.179C400.578 445.523 399.803 442.643 397.996 443.319L374.58 451.938C372.812 452.594 373.567 455.474 375.374 454.818Z" fill="white"/>
<path d="M375.374 468.88L398.79 460.24C400.578 459.585 399.803 456.705 397.996 457.38L374.58 466C372.812 466.655 373.567 469.555 375.374 468.88Z" fill="white"/>
<path d="M376.01 482.981L399.426 474.342C401.213 473.686 400.439 470.806 398.631 471.482L375.235 480.101C373.447 480.777 374.222 483.657 376.01 482.981Z" fill="white"/>
<path d="M376.188 498.513L395.612 491.363C397.4 490.687 396.625 487.808 394.818 488.483L375.394 495.633C373.606 496.308 374.381 499.188 376.188 498.513Z" fill="white"/>
<path d="M372.236 514.54L389.177 508.304C390.965 507.629 390.19 504.749 388.383 505.424L371.402 511.68C369.614 512.336 370.389 515.216 372.196 514.54H372.236Z" fill="white"/>
<path d="M367.549 528.999L384.49 522.743C386.278 522.088 385.503 519.208 383.696 519.863L366.754 526.12C364.967 526.775 365.741 529.655 367.549 528.999Z" fill="white"/>
</g>
<path d="M410.925 497.798C410.925 497.798 444.212 482.068 458.115 505.146C472.018 528.225 467.39 570.787 409.118 589.317C383.179 597.58 376.029 588.741 376.069 576.428C374.798 590.946 381.213 602.525 410.647 593.151C471.839 573.687 476.705 528.96 462.107 504.729C447.509 480.499 412.554 497.023 412.554 497.023L410.925 497.798Z" fill="#577B7C"/>
<path opacity="0.2" d="M410.925 497.798C410.925 497.798 444.212 482.068 458.115 505.146C472.018 528.225 467.39 570.787 409.118 589.317C383.179 597.58 376.029 588.741 376.069 576.428C374.798 590.946 381.213 602.525 410.647 593.151C471.839 573.687 476.705 528.96 462.107 504.729C447.509 480.499 412.554 497.023 412.554 497.023L410.925 497.798Z" fill="white"/>
<path d="M410.886 493.865C405.938 510.449 397.177 525.644 385.305 538.235C382.663 541.015 386.874 545.226 389.515 542.445C402.133 529.154 411.453 513.085 416.725 495.533C417.797 491.839 412.037 490.27 410.965 493.945L410.886 493.865Z" fill="#577B7C"/>
<g opacity="0.2">
<path d="M410.886 493.865C405.938 510.449 397.177 525.644 385.305 538.235C382.663 541.015 386.874 545.226 389.515 542.445C402.133 529.154 411.453 513.085 416.725 495.533C417.797 491.839 412.037 490.27 410.965 493.945L410.886 493.865Z" fill="white"/>
</g>
<path d="M517.679 446.516C504.153 441.412 497.162 437.797 478.453 411.859C455.215 379.644 410.012 431.72 418.651 445.821C427.291 459.923 454.957 466.636 458.373 437.658L460.677 437.797C460.677 437.797 468.622 459.347 474.262 471.045C485.444 494.183 514.58 503.319 527.271 483.776C532.713 475.295 535.414 453.229 517.679 446.516Z" fill="#577B7C"/>
<path d="M517.679 446.516C504.153 441.412 497.162 437.797 478.453 411.859C455.215 379.644 410.012 431.72 418.651 445.821C427.291 459.923 454.957 466.636 458.373 437.658L460.677 437.797C460.677 437.797 468.622 459.347 474.262 471.045C485.444 494.183 514.58 503.319 527.271 483.776C532.713 475.295 535.414 453.229 517.679 446.516Z" fill="#577B7C"/>
<path opacity="0.5" d="M517.679 446.516C504.153 441.412 497.162 437.797 478.453 411.859C455.215 379.644 410.012 431.72 418.651 445.821C427.291 459.923 454.957 466.636 458.373 437.658L460.677 437.797C460.677 437.797 468.622 459.347 474.262 471.045C485.444 494.183 514.58 503.319 527.271 483.776C532.713 475.295 535.414 453.229 517.679 446.516Z" fill="white"/>
<path d="M517.679 446.516C537.202 453.865 529.893 477.003 523.498 484.709C514.262 495.871 505.226 496.626 497.063 492.097C505.464 500.042 515.831 501.055 528.225 487.768C536.983 478.374 541.095 447.609 517.679 446.516Z" fill="#577B7C"/>
<path opacity="0.2" d="M517.679 446.516C537.202 453.865 529.893 477.003 523.498 484.709C514.262 495.871 505.226 496.626 497.063 492.097C505.464 500.042 515.831 501.055 528.225 487.768C536.983 478.374 541.095 447.609 517.679 446.516Z" fill="white"/>
<path d="M453.15 403.477C456.211 408.408 458.185 413.934 458.942 419.688C459.699 425.441 459.221 431.29 457.539 436.844C456.765 439.585 460.856 441.372 461.651 438.632C465.305 426.04 464.113 411.899 456.705 400.776C455.096 398.393 451.541 401.094 453.15 403.477Z" fill="#577B7C"/>
<g opacity="0.2">
<path d="M453.15 403.477C456.211 408.408 458.185 413.934 458.942 419.688C459.699 425.441 459.221 431.29 457.539 436.844C456.765 439.585 460.856 441.372 461.651 438.632C465.305 426.04 464.113 411.899 456.705 400.776C455.096 398.393 451.541 401.094 453.15 403.477Z" fill="white"/>
</g>
<path d="M426.596 434.957C424.793 436.928 423.412 439.247 422.538 441.771C421.663 444.295 421.314 446.971 421.511 449.635C422.271 450.427 423.08 451.17 423.934 451.859C424.137 451.715 424.297 451.519 424.399 451.292C424.5 451.065 424.538 450.815 424.51 450.568C424.133 446.04 425.106 440.638 428.483 437.321C429.773 435.95 427.966 433.567 426.596 434.957Z" fill="#577B7C"/>
<path d="M438.175 441.035C435.961 442.878 434.233 445.236 433.142 447.902C432.052 450.568 431.631 453.461 431.918 456.328C432.931 456.699 433.965 457.004 435.017 457.241C435.027 457.176 435.027 457.109 435.017 457.043C434.564 454.528 434.787 451.938 435.663 449.537C436.539 447.136 438.036 445.011 440.002 443.378C441.452 442.147 439.644 439.783 438.175 441.035Z" fill="#577B7C"/>
<g opacity="0.2">
<path d="M426.596 434.957C424.793 436.928 423.412 439.247 422.538 441.771C421.663 444.295 421.314 446.971 421.511 449.635C422.271 450.427 423.08 451.17 423.934 451.859C424.137 451.715 424.297 451.519 424.399 451.292C424.5 451.065 424.538 450.815 424.51 450.568C424.133 446.04 425.106 440.638 428.483 437.321C429.773 435.95 427.966 433.567 426.596 434.957Z" fill="black"/>
<path d="M438.175 441.035C435.961 442.878 434.233 445.236 433.142 447.902C432.052 450.568 431.631 453.461 431.918 456.328C432.931 456.699 433.965 457.004 435.017 457.241C435.027 457.176 435.027 457.109 435.017 457.043C434.564 454.528 434.787 451.938 435.663 449.537C436.539 447.136 438.036 445.011 440.002 443.378C441.452 442.147 439.644 439.783 438.175 441.035Z" fill="black"/>
</g>
<path d="M506.179 451.859L519.565 457.341C520.218 461.808 519.808 466.366 518.369 470.645C516.93 474.924 514.502 478.803 511.283 481.968C511.283 481.968 504.828 482.445 495.653 472.912C495.653 472.912 505.563 464.451 506.179 451.859Z" fill="white"/>
<path d="M507.688 471.303C507.015 470.968 506.456 470.441 506.083 469.788C505.709 469.135 505.539 468.385 505.593 467.635C505.646 466.885 505.922 466.167 506.384 465.574C506.847 464.981 507.475 464.538 508.189 464.303C508.904 464.067 509.672 464.05 510.397 464.252C511.121 464.454 511.769 464.868 512.258 465.439C512.747 466.011 513.056 466.715 513.144 467.462C513.232 468.209 513.096 468.965 512.753 469.635C512.302 470.527 511.515 471.204 510.566 471.516C509.616 471.829 508.581 471.752 507.688 471.303Z" fill="#577B7C"/>
<path d="M508.443 471.581L507.947 471.402C507.053 472.812 506.358 473.686 506.119 473.567C505.881 473.448 506.735 470.608 508.384 467.39C510.032 464.173 511.641 461.73 512.038 461.928C512.435 462.127 512.038 463.12 511.363 464.669L511.8 464.967C513.408 461.412 514.262 458.711 513.786 458.473C513.309 458.234 510.568 462.068 507.966 467.172C505.365 472.276 503.756 476.705 504.372 477.102C504.987 477.5 506.457 474.977 508.443 471.581Z" fill="#577B7C"/>
<path opacity="0.4" d="M508.443 471.581L507.947 471.402C507.053 472.812 506.358 473.686 506.119 473.567C505.881 473.448 506.735 470.608 508.384 467.39C510.032 464.173 511.641 461.73 512.038 461.928C512.435 462.127 512.038 463.12 511.363 464.669L511.8 464.967C513.408 461.412 514.262 458.711 513.786 458.473C513.309 458.234 510.568 462.068 507.966 467.172C505.365 472.276 503.756 476.705 504.372 477.102C504.987 477.5 506.457 474.977 508.443 471.581Z" fill="white"/>
<path opacity="0.3" d="M285.423 377.36C275.906 388.631 268.504 401.53 263.576 415.434C257.002 418.572 246.972 380.538 249.534 361.332C253.73 357.786 258.141 354.503 262.742 351.501H262.861C265.51 349.745 268.62 348.812 271.799 348.82H272.533C275.804 348.9 278.985 349.902 281.712 351.71C284.438 353.518 286.599 356.058 287.946 359.04C289.292 362.022 289.77 365.323 289.324 368.563C288.877 371.804 287.525 374.853 285.423 377.36Z" fill="#577B7C"/>
<path opacity="0.3" d="M270.686 513.766C270.052 514.192 269.306 514.42 268.541 514.421C268.357 514.441 268.17 514.441 267.985 514.421C240.935 510.687 214.956 492.078 202.305 468.006L202.484 455.355C203.175 455.328 203.861 455.483 204.474 455.804C205.087 456.124 205.606 456.599 205.979 457.182L207.091 458.89C207.526 459.541 207.748 460.312 207.727 461.094C218.253 483.915 241.967 502.028 267.032 506.239C268.124 508.741 269.376 511.263 270.686 513.766Z" fill="#577B7C"/>
<path opacity="0.3" d="M334.818 571.025C334.584 571.671 334.179 572.241 333.646 572.674C321.845 582.252 307.468 588.113 292.335 589.516C287.373 587.825 282.518 585.835 277.797 583.558C278.18 582.973 278.71 582.501 279.334 582.187C279.958 581.873 280.654 581.729 281.352 581.77C297.771 582.707 313.982 577.717 327.032 567.709C329.694 568.92 332.216 570.012 334.818 571.025Z" fill="#577B7C"/>
<path d="M381.03 184.89C387.042 143.832 358.631 105.675 317.573 99.6632C276.516 93.6516 238.358 122.062 232.347 163.12C226.335 204.178 254.745 242.335 295.803 248.347C336.861 254.358 375.018 225.948 381.03 184.89Z" fill="#577B7C"/>
<path opacity="0.6" d="M381.03 184.89C387.042 143.832 358.631 105.675 317.573 99.6632C276.516 93.6516 238.358 122.062 232.347 163.12C226.335 204.178 254.745 242.335 295.803 248.347C336.861 254.358 375.018 225.948 381.03 184.89Z" fill="white"/>
<path opacity="0.2" d="M348.959 111.877C347.132 121.808 340.101 130.944 336.248 141.669C331.461 154.996 342.703 163.516 331.62 185.482C320.538 207.449 307.469 205.939 300.121 216.486C295.036 223.755 284.907 236.724 279.187 243.993C291.57 248.838 305.016 250.311 318.154 248.263C326.397 238.551 341.988 224.43 338.83 222.722C334.262 220.2 323.219 235.473 318.154 232.811C313.09 230.15 322.127 223.933 342.584 209.157C363.04 194.38 361.63 166.833 363.12 152.414C363.803 145.783 366.312 139.471 370.369 134.181C364.867 125.334 357.574 117.736 348.959 111.877Z" fill="#577B7C"/>
<path opacity="0.2" d="M348.959 111.877C347.132 121.808 340.101 130.944 336.248 141.669C331.461 154.996 342.703 163.516 331.62 185.482C320.538 207.449 307.469 205.939 300.121 216.486C295.036 223.755 284.907 236.724 279.187 243.993C291.57 248.838 305.016 250.311 318.154 248.263C326.397 238.551 341.988 224.43 338.83 222.722C334.262 220.2 323.219 235.473 318.154 232.811C313.09 230.15 322.127 223.933 342.584 209.157C363.04 194.38 361.63 166.833 363.12 152.414C363.803 145.783 366.312 139.471 370.369 134.181C364.867 125.334 357.574 117.736 348.959 111.877Z" fill="black"/>
<path opacity="0.2" d="M262.96 162.861C265.721 163.377 267.231 167.588 266.337 172.275C265.443 176.962 262.484 180.219 259.743 179.782C257.002 179.345 255.473 175.036 256.367 170.368C257.26 165.701 260.18 162.404 262.96 162.861Z" fill="black"/>
<path d="M311.978 99.067C301.451 126.972 286.158 118.928 277.459 139.822C268.383 161.371 288.939 161.411 271.501 188.779C259.385 207.826 250.726 215.929 246.575 219.107C250.723 224.658 255.631 229.599 261.153 233.785C264.966 231.143 272.136 224.966 281.014 211.52C294.401 191.361 299.525 201.431 312.017 183.099C324.51 164.767 309.892 151.143 318.552 133.446C323.477 123.357 329.257 112.612 332.236 103.476C325.718 101.081 318.901 99.5978 311.978 99.067ZM303.219 160.736C301.928 167.548 297.638 172.434 293.626 171.679C289.614 170.924 287.429 164.787 288.72 157.975C290.011 151.163 294.321 146.297 298.333 147.051C302.345 147.806 304.53 153.943 303.219 160.736Z" fill="#577B7C"/>
<path d="M358.373 205.145C360.697 206.714 360.359 211.103 357.757 215.075C355.156 219.048 351.064 221.034 348.74 219.385C346.417 217.737 346.754 213.427 349.356 209.455C351.958 205.483 356.049 203.576 358.373 205.145Z" fill="#577B7C"/>
<g opacity="0.3">
<path d="M311.978 99.067C301.451 126.972 286.158 118.928 277.459 139.822C268.383 161.371 288.939 161.411 271.501 188.779C259.385 207.826 250.726 215.929 246.575 219.107C250.723 224.658 255.631 229.599 261.153 233.785C264.966 231.143 272.136 224.966 281.014 211.52C294.401 191.361 299.525 201.431 312.017 183.099C324.51 164.767 309.892 151.143 318.552 133.446C323.477 123.357 329.257 112.612 332.236 103.476C325.718 101.081 318.901 99.5978 311.978 99.067ZM303.219 160.736C301.928 167.548 297.638 172.434 293.626 171.679C289.614 170.924 287.429 164.787 288.72 157.975C290.011 151.163 294.321 146.297 298.333 147.051C302.345 147.806 304.53 153.943 303.219 160.736Z" fill="white"/>
<path d="M358.373 205.145C360.697 206.714 360.359 211.103 357.757 215.075C355.155 219.048 351.064 221.034 348.74 219.385C346.417 217.737 346.754 213.427 349.356 209.455C351.958 205.483 356.049 203.576 358.373 205.145Z" fill="white"/>
</g>
<path d="M368.323 131.083C369.356 132.592 370.31 134.122 371.322 135.73C371.74 136.426 372.097 137.141 372.474 137.836C380.697 135.055 386.02 134.36 387.191 136.326C390.468 141.887 359.068 166.575 317.042 191.481C275.016 216.386 238.333 232.077 234.976 226.515C233.804 224.529 236.962 220.239 243.358 214.36C242.941 213.685 242.464 213.03 242.047 212.374C241.113 210.766 240.259 209.137 239.425 207.508C205.105 231.739 184.112 251.203 187.647 257.161C193.05 266.257 253.189 240.577 321.988 199.802C390.786 159.028 442.187 118.59 436.804 109.494C433.249 103.556 406.079 112.592 368.323 131.083Z" fill="#577B7C"/>
</svg>
