<svg width="81" height="37" viewBox="0 0 81 37" fill="none" xmlns="http://www.w3.org/2000/svg">
<path d="M73.125 11.5C65.875 11.5 62.25 0.625 51.375 0.625C40.5 0.625 40.5 7.875 40.5 7.875C40.5 7.875 40.5 0.625 29.625 0.625C18.75 0.625 15.125 11.5 7.875 11.5C4.25 11.5 0.625 7.875 0.625 7.875C0.625 7.875 4.25 26 18.75 26C36.875 26 40.5 15.125 40.5 15.125C40.5 15.125 44.125 26 62.25 26C76.75 26 80.375 7.875 80.375 7.875C80.375 7.875 76.75 11.5 73.125 11.5Z" fill="#577B7C"/>
<circle cx="24.1875" cy="31.4375" r="5.4375" fill="#577B7C"/>
<circle cx="56.8125" cy="31.4375" r="5.4375" fill="#577B7C"/>
</svg>
