<svg width="107" height="39" viewBox="0 0 107 39" fill="none" xmlns="http://www.w3.org/2000/svg">
<path d="M63 8C61 8 60 5 57 5C54 5 54 7 54 7C54 7 54 5 51 5C48 5 47 8 45 8C44 8 43 7 43 7C43 7 44 12 48 12C53 12 54 9 54 9C54 9 55 12 60 12C64 12 65 7 65 7C65 7 64 8 63 8Z" fill="#577B7C"/>
<circle cx="49.5" cy="13.5" r="1.5" fill="#577B7C"/>
<circle cx="58.5" cy="13.5" r="1.5" fill="#577B7C"/>
<path d="M7.504 30.216C6.592 30.216 5.824 30.056 5.2 29.736C4.592 29.4 4.136 28.92 3.832 28.296C3.528 27.656 3.376 26.88 3.376 25.968V19.848H1.768C1.496 19.848 1.288 19.784 1.144 19.656C1 19.512 0.928 19.32 0.928 19.08C0.928 18.84 1 18.656 1.144 18.528C1.288 18.4 1.496 18.336 1.768 18.336H3.376V15.576C3.376 15.256 3.464 15.016 3.64 14.856C3.816 14.68 4.056 14.592 4.36 14.592C4.664 14.592 4.896 14.68 5.056 14.856C5.232 15.016 5.32 15.256 5.32 15.576V18.336H8.344C8.616 18.336 8.824 18.4 8.968 18.528C9.112 18.656 9.184 18.84 9.184 19.08C9.184 19.32 9.112 19.512 8.968 19.656C8.824 19.784 8.616 19.848 8.344 19.848H5.32V25.776C5.32 26.688 5.512 27.384 5.896 27.864C6.28 28.328 6.904 28.56 7.768 28.56C8.072 28.56 8.328 28.528 8.536 28.464C8.76 28.4 8.944 28.368 9.088 28.368C9.232 28.352 9.352 28.4 9.448 28.512C9.544 28.624 9.592 28.816 9.592 29.088C9.592 29.28 9.552 29.456 9.472 29.616C9.408 29.776 9.288 29.888 9.112 29.952C8.92 30.016 8.664 30.072 8.344 30.12C8.04 30.184 7.76 30.216 7.504 30.216ZM15.9454 30.216C14.8094 30.216 13.8254 29.968 12.9934 29.472C12.1614 28.976 11.5134 28.28 11.0494 27.384C10.6014 26.472 10.3774 25.4 10.3774 24.168C10.3774 23.24 10.5054 22.408 10.7614 21.672C11.0174 20.92 11.3934 20.28 11.8894 19.752C12.3854 19.224 12.9694 18.824 13.6414 18.552C14.3294 18.264 15.0974 18.12 15.9454 18.12C17.0814 18.12 18.0654 18.368 18.8974 18.864C19.7294 19.36 20.3694 20.064 20.8174 20.976C21.2814 21.872 21.5134 22.936 21.5134 24.168C21.5134 25.096 21.3854 25.928 21.1294 26.664C20.8734 27.4 20.4974 28.04 20.0014 28.584C19.5054 29.112 18.9134 29.52 18.2254 29.808C17.5534 30.08 16.7934 30.216 15.9454 30.216ZM15.9454 28.656C16.6654 28.656 17.2974 28.48 17.8414 28.128C18.3854 27.776 18.8014 27.264 19.0894 26.592C19.3934 25.92 19.5454 25.112 19.5454 24.168C19.5454 22.712 19.2174 21.6 18.5614 20.832C17.9214 20.064 17.0494 19.68 15.9454 19.68C15.2094 19.68 14.5694 19.856 14.0254 20.208C13.4974 20.544 13.0814 21.048 12.7774 21.72C12.4894 22.376 12.3454 23.192 12.3454 24.168C12.3454 25.608 12.6734 26.72 13.3294 27.504C13.9854 28.272 14.8574 28.656 15.9454 28.656ZM25.3934 30.168C25.0734 30.168 24.8334 30.08 24.6734 29.904C24.5134 29.728 24.4334 29.48 24.4334 29.16V13.896C24.4334 13.576 24.5134 13.336 24.6734 13.176C24.8334 13 25.0734 12.912 25.3934 12.912C25.6974 12.912 25.9374 13 26.1134 13.176C26.2894 13.336 26.3774 13.576 26.3774 13.896V23.52H26.4254L31.3454 18.816C31.5694 18.608 31.7614 18.448 31.9214 18.336C32.0974 18.224 32.3294 18.168 32.6174 18.168C32.8734 18.168 33.0734 18.24 33.2174 18.384C33.3614 18.512 33.4254 18.68 33.4094 18.888C33.4094 19.08 33.3134 19.288 33.1214 19.512L27.8894 24.48V23.424L33.5774 28.776C33.8014 29 33.9134 29.216 33.9134 29.424C33.9134 29.632 33.8334 29.808 33.6734 29.952C33.5294 30.096 33.3374 30.168 33.0974 30.168C32.8094 30.168 32.5774 30.112 32.4014 30C32.2254 29.872 32.0094 29.688 31.7534 29.448L26.4254 24.528H26.3774V29.16C26.3774 29.832 26.0494 30.168 25.3934 30.168ZM40.9767 30.216C39.8407 30.216 38.8567 29.968 38.0247 29.472C37.1927 28.976 36.5447 28.28 36.0807 27.384C35.6327 26.472 35.4087 25.4 35.4087 24.168C35.4087 23.24 35.5367 22.408 35.7927 21.672C36.0487 20.92 36.4247 20.28 36.9207 19.752C37.4167 19.224 38.0007 18.824 38.6727 18.552C39.3607 18.264 40.1287 18.12 40.9767 18.12C42.1127 18.12 43.0967 18.368 43.9287 18.864C44.7607 19.36 45.4007 20.064 45.8487 20.976C46.3127 21.872 46.5447 22.936 46.5447 24.168C46.5447 25.096 46.4167 25.928 46.1607 26.664C45.9047 27.4 45.5287 28.04 45.0327 28.584C44.5367 29.112 43.9447 29.52 43.2567 29.808C42.5847 30.08 41.8247 30.216 40.9767 30.216ZM40.9767 28.656C41.6967 28.656 42.3287 28.48 42.8727 28.128C43.4167 27.776 43.8327 27.264 44.1207 26.592C44.4247 25.92 44.5767 25.112 44.5767 24.168C44.5767 22.712 44.2487 21.6 43.5927 20.832C42.9527 20.064 42.0807 19.68 40.9767 19.68C40.2407 19.68 39.6007 19.856 39.0567 20.208C38.5287 20.544 38.1127 21.048 37.8087 21.72C37.5207 22.376 37.3767 23.192 37.3767 24.168C37.3767 25.608 37.7047 26.72 38.3607 27.504C39.0167 28.272 39.8887 28.656 40.9767 28.656ZM50.4246 34.488C50.1046 34.488 49.8646 34.4 49.7046 34.224C49.5446 34.064 49.4646 33.824 49.4646 33.504V19.152C49.4646 18.832 49.5446 18.592 49.7046 18.432C49.8646 18.256 50.0966 18.168 50.4006 18.168C50.7206 18.168 50.9606 18.256 51.1206 18.432C51.2966 18.592 51.3846 18.832 51.3846 19.152V21.432L51.1206 21.096C51.3766 20.184 51.8806 19.464 52.6326 18.936C53.4006 18.392 54.3126 18.12 55.3686 18.12C56.4086 18.12 57.3126 18.368 58.0806 18.864C58.8646 19.344 59.4646 20.04 59.8806 20.952C60.3126 21.848 60.5286 22.92 60.5286 24.168C60.5286 25.4 60.3126 26.472 59.8806 27.384C59.4646 28.28 58.8726 28.976 58.1046 29.472C57.3366 29.968 56.4246 30.216 55.3686 30.216C54.3126 30.216 53.4086 29.952 52.6566 29.424C51.9046 28.88 51.3926 28.16 51.1206 27.264H51.4086V33.504C51.4086 33.824 51.3206 34.064 51.1446 34.224C50.9686 34.4 50.7286 34.488 50.4246 34.488ZM54.9606 28.656C55.6966 28.656 56.3286 28.48 56.8566 28.128C57.4006 27.776 57.8166 27.264 58.1046 26.592C58.4086 25.92 58.5606 25.112 58.5606 24.168C58.5606 22.712 58.2326 21.6 57.5766 20.832C56.9366 20.064 56.0646 19.68 54.9606 19.68C54.2406 19.68 53.6086 19.856 53.0646 20.208C52.5206 20.544 52.0966 21.048 51.7926 21.72C51.5046 22.376 51.3606 23.192 51.3606 24.168C51.3606 25.608 51.6886 26.72 52.3446 27.504C53.0006 28.272 53.8726 28.656 54.9606 28.656ZM67.1288 30.216C66.3288 30.216 65.6088 30.064 64.9688 29.76C64.3448 29.44 63.8488 29.008 63.4808 28.464C63.1128 27.92 62.9288 27.312 62.9288 26.64C62.9288 25.776 63.1448 25.096 63.5768 24.6C64.0248 24.104 64.7528 23.752 65.7608 23.544C66.7848 23.336 68.1768 23.232 69.9368 23.232H71.0168V24.504H69.9608C68.6648 24.504 67.6408 24.568 66.8888 24.696C66.1528 24.808 65.6328 25.008 65.3288 25.296C65.0408 25.584 64.8968 25.992 64.8968 26.52C64.8968 27.176 65.1208 27.712 65.5688 28.128C66.0328 28.544 66.6568 28.752 67.4408 28.752C68.0808 28.752 68.6408 28.6 69.1208 28.296C69.6168 27.992 70.0008 27.576 70.2728 27.048C70.5608 26.52 70.7048 25.912 70.7048 25.224V22.488C70.7048 21.496 70.5048 20.784 70.1048 20.352C69.7048 19.904 69.0488 19.68 68.1368 19.68C67.5768 19.68 67.0168 19.752 66.4568 19.896C65.8968 20.04 65.3048 20.272 64.6808 20.592C64.4568 20.704 64.2648 20.744 64.1048 20.712C63.9448 20.664 63.8168 20.576 63.7208 20.448C63.6248 20.32 63.5688 20.176 63.5528 20.016C63.5368 19.84 63.5688 19.672 63.6488 19.512C63.7448 19.352 63.8888 19.224 64.0808 19.128C64.7848 18.776 65.4808 18.52 66.1688 18.36C66.8568 18.2 67.5128 18.12 68.1368 18.12C69.1448 18.12 69.9768 18.288 70.6328 18.624C71.2888 18.944 71.7768 19.44 72.0968 20.112C72.4168 20.768 72.5768 21.616 72.5768 22.656V29.16C72.5768 29.48 72.4968 29.728 72.3368 29.904C72.1928 30.08 71.9768 30.168 71.6888 30.168C71.3848 30.168 71.1528 30.08 70.9928 29.904C70.8328 29.728 70.7528 29.48 70.7528 29.16V27.288H70.9688C70.8408 27.896 70.5928 28.416 70.2248 28.848C69.8728 29.28 69.4328 29.616 68.9048 29.856C68.3768 30.096 67.7848 30.216 67.1288 30.216ZM81.4394 30.216C80.2074 30.216 79.1434 29.976 78.2474 29.496C77.3674 29 76.6794 28.304 76.1834 27.408C75.7034 26.512 75.4634 25.44 75.4634 24.192C75.4634 22.976 75.7034 21.92 76.1834 21.024C76.6634 20.112 77.3194 19.4 78.1514 18.888C78.9994 18.376 79.9754 18.12 81.0794 18.12C81.8634 18.12 82.5674 18.256 83.1914 18.528C83.8154 18.784 84.3434 19.16 84.7754 19.656C85.2234 20.152 85.5594 20.752 85.7834 21.456C86.0234 22.16 86.1434 22.952 86.1434 23.832C86.1434 24.088 86.0714 24.28 85.9274 24.408C85.7834 24.52 85.5754 24.576 85.3034 24.576H76.9514V23.304H84.8474L84.4634 23.616C84.4634 22.752 84.3354 22.024 84.0794 21.432C83.8234 20.824 83.4474 20.36 82.9514 20.04C82.4714 19.72 81.8634 19.56 81.1274 19.56C80.3114 19.56 79.6154 19.752 79.0394 20.136C78.4794 20.504 78.0554 21.024 77.7674 21.696C77.4794 22.352 77.3354 23.12 77.3354 24V24.144C77.3354 25.616 77.6874 26.736 78.3914 27.504C79.1114 28.272 80.1274 28.656 81.4394 28.656C81.9834 28.656 82.5194 28.584 83.0474 28.44C83.5914 28.296 84.1194 28.056 84.6314 27.72C84.8554 27.576 85.0554 27.512 85.2314 27.528C85.4234 27.528 85.5754 27.584 85.6874 27.696C85.7994 27.792 85.8714 27.92 85.9034 28.08C85.9514 28.224 85.9354 28.384 85.8554 28.56C85.7914 28.736 85.6554 28.888 85.4474 29.016C84.9194 29.4 84.2954 29.696 83.5754 29.904C82.8554 30.112 82.1434 30.216 81.4394 30.216ZM93.3968 30.216C92.3568 30.216 91.4448 29.968 90.6608 29.472C89.8928 28.976 89.2928 28.28 88.8608 27.384C88.4448 26.472 88.2368 25.4 88.2368 24.168C88.2368 22.92 88.4448 21.848 88.8608 20.952C89.2928 20.04 89.8928 19.344 90.6608 18.864C91.4448 18.368 92.3568 18.12 93.3968 18.12C94.4528 18.12 95.3568 18.384 96.1088 18.912C96.8608 19.44 97.3648 20.152 97.6208 21.048H97.3568V13.896C97.3568 13.576 97.4368 13.336 97.5968 13.176C97.7728 13 98.0208 12.912 98.3408 12.912C98.6448 12.912 98.8768 13 99.0368 13.176C99.2128 13.336 99.3008 13.576 99.3008 13.896V29.16C99.3008 29.48 99.2208 29.728 99.0608 29.904C98.9008 30.08 98.6608 30.168 98.3408 30.168C98.0368 30.168 97.7968 30.08 97.6208 29.904C97.4608 29.728 97.3808 29.48 97.3808 29.16V26.88L97.6448 27.216C97.3888 28.128 96.8768 28.856 96.1088 29.4C95.3568 29.944 94.4528 30.216 93.3968 30.216ZM93.8048 28.656C94.5248 28.656 95.1568 28.48 95.7008 28.128C96.2448 27.776 96.6608 27.264 96.9488 26.592C97.2528 25.92 97.4048 25.112 97.4048 24.168C97.4048 22.712 97.0768 21.6 96.4208 20.832C95.7808 20.064 94.9088 19.68 93.8048 19.68C93.0688 19.68 92.4288 19.856 91.8848 20.208C91.3568 20.544 90.9408 21.048 90.6368 21.72C90.3488 22.376 90.2048 23.192 90.2048 24.168C90.2048 25.608 90.5328 26.72 91.1888 27.504C91.8448 28.272 92.7168 28.656 93.8048 28.656ZM103.909 30.12C103.589 30.12 103.349 30.032 103.189 29.856C103.029 29.664 102.949 29.4 102.949 29.064V19.248C102.949 18.912 103.029 18.656 103.189 18.48C103.349 18.304 103.589 18.216 103.909 18.216C104.213 18.216 104.453 18.304 104.629 18.48C104.805 18.656 104.893 18.912 104.893 19.248V29.064C104.893 29.4 104.805 29.664 104.629 29.856C104.469 30.032 104.229 30.12 103.909 30.12ZM103.909 15.528C103.509 15.528 103.197 15.424 102.973 15.216C102.749 14.992 102.637 14.696 102.637 14.328C102.637 13.944 102.749 13.656 102.973 13.464C103.197 13.256 103.509 13.152 103.909 13.152C104.325 13.152 104.637 13.256 104.845 13.464C105.069 13.656 105.181 13.944 105.181 14.328C105.181 14.696 105.069 14.992 104.845 15.216C104.637 15.424 104.325 15.528 103.909 15.528Z" fill="#577B7C"/>
</svg>
